# xmcd
#
# Track frame offsets:
#	150
#	11549
#	29909
#	42755
#	52282
#	69386
#	84510
#	97754
#	111511
#	125014
#	134252
#	150552
#	161145
#	177484
#	188700
#	201632
#	217311
#	227560
#
# Disc length: 3197 seconds
#
# Revision: 1
# Processed by: cddbd v1.5.2PL0 Copyright (c) Steve Scherf et al.
# Submitted via: EasyCDDAExtractor 12.0.6 .1
#
DISCID=0d0c7b12
DTITLE=KLUBKO - DO ZEME STARYCH LIP
DYEAR=2013
DGENRE=Country
TTITLE0=VLACEK KDYSI
TTITLE1=BAJ O LODI TAKOVA MILA
TTITLE2=PO SIROKY MISSISSIPPI
TTITLE3=LINA BOZENA
TTITLE4=V UDOLI DOLE
TTITLE5=BERANKY
TTITLE6=RIKALI MU HOHO
TTITLE7=TRICET DNU
TTITLE8=JAKO DRIV
TTITLE9=JAKO KUN
TTITLE10=NAVRAT
TTITLE11=ZAHRADNIK PAJDA
TTITLE12=ZBYTECNE HROBY
TTITLE13=VETRNE MLYNY
TTITLE14=KANADSKY ZERTIK
TTITLE15=MODRE OCI
TTITLE16=PRO MALOU HOLCICKU
TTITLE17=DO ZEME STARYCH LIP
EXTD=
EXTT0=
EXTT1=
EXTT2=
EXTT3=
EXTT4=
EXTT5=
EXTT6=
EXTT7=
EXTT8=
EXTT9=
EXTT10=
EXTT11=
EXTT12=
EXTT13=
EXTT14=
EXTT15=
EXTT16=
EXTT17=
PLAYORDER=
